<svg width="13" height="11" viewBox="0 0 13 11" fill="none" xmlns="http://www.w3.org/2000/svg">
<path d="M4.16816 7.70117L11.0471 0.820699C11.2608 0.606899 11.5329 0.5 11.8632 0.5C12.1936 0.5 12.4656 0.606899 12.6794 0.820699C12.8931 1.0345 13 1.30661 13 1.63703C13 1.96744 12.8931 2.23955 12.6794 2.45335L4.9843 10.1501C4.75112 10.3834 4.47907 10.5 4.16816 10.5C3.85725 10.5 3.5852 10.3834 3.35202 10.1501L0.320627 7.11808C0.106875 6.90428 0 6.63217 0 6.30175C0 5.97133 0.106875 5.69922 0.320627 5.48542C0.534379 5.27162 0.806427 5.16472 1.13677 5.16472C1.46711 5.16472 1.73916 5.27162 1.95291 5.48542L4.16816 7.70117Z" fill="#101519"/>
</svg>
