<svg width="20" height="20" viewBox="0 0 20 20" fill="none" xmlns="http://www.w3.org/2000/svg">
<path d="M0.533647 2.41144L2.0521 3.92981C3.46424 2.08121 5.47671 0.782714 7.74306 0.257867C10.0094 -0.26698 12.3879 0.0146578 14.4689 1.0543C16.55 2.09394 18.2035 3.82653 19.1448 5.95381C20.0861 8.08109 20.2562 10.47 19.626 12.7092C18.9958 14.9484 17.6045 16.8978 15.6918 18.2219C13.7791 19.546 11.4646 20.1619 9.14675 19.9636C6.82888 19.7652 4.65268 18.7651 2.99277 17.1353C1.33286 15.5055 0.293099 13.348 0.0524904 11.0343C0.0269682 10.7869 0.100783 10.5394 0.257698 10.3464C0.414612 10.1534 0.641771 10.0307 0.889204 10.0052C1.13664 9.97964 1.38407 10.0535 1.57708 10.2104C1.77009 10.3673 1.89286 10.5944 1.91838 10.8418C2.11542 12.7318 2.96888 14.493 4.33029 15.8188C5.69169 17.1446 7.47486 17.9512 9.36954 18.0982C11.2642 18.2452 13.1505 17.7234 14.7001 16.6234C16.2498 15.5235 17.3647 13.9151 17.851 12.0781C18.3373 10.2411 18.1641 8.29178 17.3616 6.56928C16.559 4.84677 15.178 3.46013 13.4587 2.6506C11.7393 1.84108 9.79062 1.65992 7.95154 2.13865C6.11245 2.61737 4.49942 3.72567 3.3931 5.27073L5.09027 6.9678C5.13408 7.01149 5.16392 7.06721 5.17602 7.12789C5.18813 7.18857 5.18194 7.25147 5.15824 7.30863C5.13455 7.36578 5.09442 7.41462 5.04293 7.44894C4.99145 7.48326 4.93094 7.50153 4.86906 7.50141H0.31244C0.229576 7.50141 0.150106 7.4685 0.091512 7.40991C0.0329182 7.35132 5.0031e-07 7.27185 5.0031e-07 7.18899V2.63264C-0.000110207 2.57077 0.018154 2.51025 0.0524777 2.45877C0.0868014 2.40729 0.135639 2.36716 0.192799 2.34347C0.249959 2.31978 0.312867 2.31359 0.373548 2.32569C0.434229 2.33779 0.48995 2.36764 0.533647 2.41144ZM9.68563 5.00204C9.93422 5.00204 10.1726 5.10079 10.3484 5.27656C10.5242 5.45233 10.6229 5.69073 10.6229 5.93931V9.67837L13.1575 10.6931C13.3808 10.7905 13.5575 10.971 13.65 11.1964C13.7425 11.4217 13.7436 11.6743 13.6531 11.9005C13.5626 12.1267 13.3876 12.3088 13.1651 12.4081C12.9426 12.5074 12.6902 12.5163 12.4613 12.4327L9.33695 11.183C9.16329 11.1132 9.01446 10.9931 8.90957 10.8381C8.80468 10.6832 8.74852 10.5003 8.74831 10.3132V5.93931C8.74831 5.69073 8.84706 5.45233 9.02285 5.27656C9.19863 5.10079 9.43704 5.00204 9.68563 5.00204Z" fill="#0A0D10"/>
</svg>
